<svg width="512" height="411" viewBox="0 0 512 411" fill="none" xmlns="http://www.w3.org/2000/svg">
<g clip-path="url(#clip0_432_786)">
<path d="M483.06 205.45L313.78 370.69V302.45C313.78 296.28 309.08 291.19 303.06 290.58C242.79 278.61 188.03 278.47 138.2 293.63C98.0802 305.84 61.4002 327.85 27.8902 361.46C38.4602 296.13 65.6602 241.48 106.53 200.99C154.37 153.63 221.21 125.43 302.31 122C308.72 121.75 313.74 116.47 313.74 110.11L313.78 40.22L483.06 205.45ZM310.14 407.5L508.63 213.75C513.21 209.04 513.11 201.5 508.4 196.92L310.78 4.04001C309.664 2.76834 308.289 1.74998 306.747 1.0532C305.205 0.356426 303.532 -0.00266161 301.84 1.48523e-05C295.26 1.48523e-05 289.91 5.35001 289.91 11.94V98.87C207.72 104.66 139.5 134.86 89.7502 184.12C37.3402 236.02 5.67014 308.88 0.0201416 396.46C-0.199858 400.19 1.32016 403.97 4.45016 406.48C9.58016 410.6 17.0702 409.79 21.1902 404.66C58.1502 358.67 99.2802 330.33 145.1 316.39C188.64 303.14 236.79 302.69 289.91 312.28V398.97C289.94 401.96 291.06 404.96 293.31 407.27C297.9 411.98 305.44 412.08 310.14 407.5Z" fill="black"/>
</g>
<defs>
<clipPath id="clip0_432_786">
<rect width="512" height="410.87" fill="white" transform="matrix(-1 0 0 1 512 0)"/>
</clipPath>
</defs>
</svg>
