<svg width="19" height="19" viewBox="0 0 19 19" fill="none" xmlns="http://www.w3.org/2000/svg">
<path d="M11.286 1.40234L11.2852 1.40235C11.2521 1.40235 11.2204 1.41548 11.1969 1.43884C10.7234 1.91265 10.6077 2.50212 10.6076 2.96276C10.6081 3.12781 10.6224 3.29253 10.6503 3.4552L10.6942 3.71039L10.5111 3.89345L6.59356 7.8097L6.39377 8.00943L6.11959 7.94136C5.73242 7.84524 5.33766 7.78286 4.93972 7.75493C4.10189 7.69894 3.06054 7.80777 2.35867 8.5096C2.35866 8.50961 2.35864 8.50963 2.35862 8.50965M11.286 1.40234L2.00507 9.03984C1.8879 8.92264 1.82208 8.7637 1.82208 8.59797C1.82208 8.43224 1.8879 8.2733 2.00507 8.1561L2.35862 8.50965M11.286 1.40234C11.3024 1.40231 11.3187 1.40552 11.3338 1.41179C11.3489 1.41802 11.3627 1.42714 11.3743 1.43866C11.3743 1.43872 11.3744 1.43878 11.3745 1.43885L17.5615 7.62584M11.286 1.40234L17.5615 7.62584M2.35862 8.50965C2.33522 8.53308 2.32208 8.56485 2.32208 8.59797C2.32208 8.63111 2.33524 8.6629 2.35867 8.68634L2.35868 8.68635L5.89368 12.2226L6.24711 12.5762L5.89362 12.9296L1.91612 16.9071L1.91521 16.9081C1.84907 16.9739 1.64857 17.2352 1.45835 17.5414M2.35862 8.50965L1.45835 17.5414M17.5615 7.62584C17.5615 7.62586 17.5615 7.62588 17.5615 7.6259M17.5615 7.62584L17.5615 7.6259M1.45835 17.5414C1.41036 17.5712 1.36129 17.6008 1.31171 17.6295C1.13228 17.7336 0.976286 17.809 0.866274 17.8455C0.820432 17.8607 0.800154 17.8631 0.800177 17.8633C0.800183 17.8633 0.801342 17.8633 0.803584 17.8632H0.803601C0.809729 17.8631 0.925346 17.8605 1.03237 17.9675C1.13941 18.0746 1.13682 18.1902 1.13669 18.1962L1.13669 18.1963C1.13664 18.1985 1.13657 18.1996 1.13662 18.1996C1.13684 18.1997 1.13923 18.1793 1.15444 18.1334C1.19091 18.0233 1.26639 17.8671 1.37044 17.6877C1.39913 17.6382 1.42861 17.5892 1.45835 17.5414ZM1.45835 17.5414C1.76414 17.3513 2.02594 17.1506 2.09276 17.0838L2.44632 17.4373M1.45835 17.5414L5.54007 12.5761L1.56257 16.5536C1.31882 16.7961 0.435067 18.0773 0.678817 18.3211C0.922567 18.5648 2.20257 17.6811 2.44632 17.4373M2.44632 17.4373L2.09276 17.0838L6.07026 13.1063L6.42375 12.7528L6.77731 13.1062L10.3136 16.6412L10.3136 16.6412C10.337 16.6647 10.3688 16.6778 10.4019 16.6778C10.4351 16.6778 10.4668 16.6647 10.4903 16.6413M2.44632 17.4373L6.42382 13.4598L10.4903 16.6413M10.4903 16.6413L10.8438 16.9948L10.4903 16.6412C10.4903 16.6413 10.4903 16.6413 10.4903 16.6413ZM10.4903 16.6413C11.1919 15.9397 11.2998 14.8989 11.245 14.0599M10.4903 16.6413L11.245 14.0599M15.29 8.30656L15.5442 8.34925C15.6791 8.37193 15.8484 8.39109 16.0363 8.39109C16.4988 8.39109 17.0887 8.27529 17.5615 7.8026C17.5615 7.80258 17.5615 7.80256 17.5615 7.80254M15.29 8.30656L17.9151 8.1561L17.5615 7.80254M15.29 8.30656L15.1078 8.48879M15.29 8.30656L15.1078 8.48879M17.5615 7.80254C17.5849 7.7791 17.5981 7.74734 17.5981 7.71422C17.5981 7.6811 17.5849 7.64933 17.5615 7.6259M17.5615 7.80254V7.6259M15.1078 8.48879L11.1903 12.4063L10.9905 12.6061M15.1078 8.48879L10.9905 12.6061M10.9905 12.6061L11.0585 12.8803M10.9905 12.6061L11.0585 12.8803M11.0585 12.8803C11.1546 13.2674 11.217 13.6621 11.245 14.0599M11.0585 12.8803L11.245 14.0599" stroke="#2C2C2C"/>
</svg>
