<svg width="16" height="16" viewBox="0 0 16 16" fill="none" xmlns="http://www.w3.org/2000/svg">
<path d="M9.82825 0.718751C9.89395 0.718633 9.95904 0.731467 10.0198 0.756519C10.0805 0.781571 10.1357 0.818349 10.1822 0.864751L15.1322 5.81475C15.226 5.90851 15.2786 6.03567 15.2786 6.16825C15.2786 6.30083 15.226 6.42799 15.1322 6.52175C14.6522 7.00175 14.0602 7.10975 13.6292 7.10975C13.4522 7.10975 13.2942 7.09175 13.1692 7.07075L10.0352 10.2048C10.1178 10.5372 10.1713 10.8761 10.1952 11.2178C10.2412 11.9198 10.1632 12.9048 9.47525 13.5928C9.38148 13.6865 9.25433 13.7391 9.12175 13.7391C8.98917 13.7391 8.86201 13.6865 8.76825 13.5928L5.93925 10.7648L2.75725 13.9468C2.56225 14.1418 1.53825 14.8488 1.34325 14.6538C1.14825 14.4588 1.85525 13.4338 2.05025 13.2398L5.23225 10.0578L2.40425 7.22875C2.31051 7.13499 2.25786 7.00783 2.25786 6.87525C2.25786 6.74267 2.31051 6.61551 2.40425 6.52175C3.09225 5.83375 4.07725 5.75475 4.77925 5.80175C5.12091 5.82569 5.45984 5.87922 5.79225 5.96175L8.92625 2.82875C8.90009 2.67647 8.88671 2.52226 8.88625 2.36775C8.88625 1.93775 8.99425 1.34575 9.47525 0.864751C9.56895 0.771282 9.6959 0.718779 9.82825 0.718751Z" fill="#7F8384"/>
</svg>
